<mxfile host="65bd71144e">
    <diagram id="rslLTfcjcnxt3dhrRhIh" name="第 1 页">
        <mxGraphModel dx="1722" dy="410" grid="1" gridSize="10" guides="1" tooltips="1" connect="1" arrows="1" fold="1" page="1" pageScale="1" pageWidth="827" pageHeight="1169" math="0" shadow="0">
            <root>
                <mxCell id="0"/>
                <mxCell id="1" parent="0"/>
                <mxCell id="43" value="" style="rounded=0;whiteSpace=wrap;html=1;labelBackgroundColor=none;labelBorderColor=none;fontFamily=Verdana;fontSize=34;fillColor=#bac8d3;strokeColor=#23445d;" parent="1" vertex="1">
                    <mxGeometry x="-250" y="10" width="1770" height="990" as="geometry"/>
                </mxCell>
                <mxCell id="15" value="&lt;b&gt;&lt;font style=&quot;font-size: 24px&quot;&gt;代码阶段/编译阶段&lt;/font&gt;&lt;/b&gt;" style="rounded=0;whiteSpace=wrap;html=1;labelBackgroundColor=none;fontFamily=Verdana;fontSize=10;fontColor=#FFFFFF;align=left;verticalAlign=top;fillColor=#333333;" parent="1" vertex="1">
                    <mxGeometry x="-150" y="170" width="490" height="750" as="geometry"/>
                </mxCell>
                <mxCell id="20" value="&lt;b&gt;&lt;font style=&quot;font-size: 24px&quot;&gt;Class 类阶段（加载阶段）&lt;/font&gt;&lt;/b&gt;" style="rounded=0;whiteSpace=wrap;html=1;labelBackgroundColor=none;fontFamily=Verdana;fontSize=10;fontColor=#FFFFFF;align=left;verticalAlign=top;fillColor=#333333;" parent="1" vertex="1">
                    <mxGeometry x="400" y="170" width="490" height="750" as="geometry"/>
                </mxCell>
                <mxCell id="36" value="&lt;b&gt;类加载器&lt;br&gt;&lt;font style=&quot;font-size: 14px&quot;&gt;ClassLoader&lt;br&gt;loadClass() 方法&lt;br&gt;&lt;/font&gt;&lt;/b&gt;" style="ellipse;whiteSpace=wrap;html=1;labelBackgroundColor=none;labelBorderColor=none;fontFamily=Verdana;fontSize=22;fontColor=#000000;align=center;fillColor=#f0a30a;strokeColor=#BD7000;" parent="1" vertex="1">
                    <mxGeometry x="310" y="620" width="165" height="110" as="geometry"/>
                </mxCell>
                <mxCell id="22" value="&lt;b&gt;&lt;font style=&quot;font-size: 24px&quot;&gt;Runtime 运行阶段&lt;/font&gt;&lt;/b&gt;" style="rounded=0;whiteSpace=wrap;html=1;labelBackgroundColor=none;fontFamily=Verdana;fontSize=10;fontColor=#FFFFFF;align=left;verticalAlign=top;fillColor=#333333;" parent="1" vertex="1">
                    <mxGeometry x="950" y="170" width="490" height="750" as="geometry"/>
                </mxCell>
                <mxCell id="27" value="" style="rounded=0;whiteSpace=wrap;html=1;fontFamily=Verdana;fontSize=14;fillColor=#647687;strokeColor=#314354;align=left;verticalAlign=top;fontColor=#ffffff;" parent="1" vertex="1">
                    <mxGeometry x="980" y="220" width="410" height="140" as="geometry"/>
                </mxCell>
                <mxCell id="2" value="Java 程序在计算机的三个阶段" style="rounded=1;whiteSpace=wrap;html=1;fillColor=#76608a;fontColor=#ffffff;strokeColor=#432D57;fontFamily=Verdana;fontStyle=1;fontSize=34;" parent="1" vertex="1">
                    <mxGeometry x="290" y="50" width="730" height="80" as="geometry"/>
                </mxCell>
                <mxCell id="10" style="edgeStyle=none;html=1;exitX=0.5;exitY=1;exitDx=0;exitDy=0;fontFamily=Verdana;fontSize=14;strokeWidth=2;fillColor=#f0a30a;strokeColor=#BD7000;" parent="1" source="3" target="6" edge="1">
                    <mxGeometry relative="1" as="geometry"/>
                </mxCell>
                <mxCell id="3" value="&lt;div style=&quot;text-align: center&quot;&gt;&lt;b&gt;&lt;font style=&quot;font-size: 19px&quot;&gt;源代码 Cat.java&lt;/font&gt;&lt;/b&gt;&lt;/div&gt;&lt;div style=&quot;text-align: center&quot;&gt;&lt;br&gt;&lt;/div&gt;&lt;div style=&quot;color: rgb(171 , 178 , 191) ; background-color: rgb(40 , 44 , 52) ; font-family: &amp;#34;cn regular&amp;#34; , &amp;#34;consolas&amp;#34; , &amp;#34;courier new&amp;#34; , monospace , &amp;#34;consolas&amp;#34; , &amp;#34;courier new&amp;#34; , monospace ; font-weight: normal ; font-size: 18px ; line-height: 24px&quot;&gt;&lt;div&gt;&lt;span style=&quot;color: #c678dd&quot;&gt;public&lt;/span&gt;&lt;span style=&quot;color: #e06c75&quot;&gt; &lt;/span&gt;&lt;span style=&quot;color: #c678dd&quot;&gt;class&lt;/span&gt;&lt;span style=&quot;color: #e06c75&quot;&gt; &lt;/span&gt;&lt;span style=&quot;color: #e5c07b&quot;&gt;Cat&lt;/span&gt;&lt;span style=&quot;color: #e06c75&quot;&gt; &lt;/span&gt;&lt;span style=&quot;color: #abb2bf&quot;&gt;{&lt;/span&gt;&lt;/div&gt;&lt;div&gt;&lt;span style=&quot;color: #e06c75&quot;&gt;&amp;nbsp; &amp;nbsp; &lt;/span&gt;&lt;span style=&quot;color: #c678dd&quot;&gt;private&lt;/span&gt;&lt;span style=&quot;color: #e06c75&quot;&gt; &lt;/span&gt;&lt;span style=&quot;color: #e5c07b&quot;&gt;String&lt;/span&gt;&lt;span style=&quot;color: #e06c75&quot;&gt; &lt;/span&gt;&lt;span style=&quot;color: #e06c75&quot;&gt;name&lt;/span&gt;&lt;span style=&quot;color: #e06c75&quot;&gt; &lt;/span&gt;&lt;span style=&quot;color: #56b6c2&quot;&gt;=&lt;/span&gt;&lt;span style=&quot;color: #e06c75&quot;&gt; &lt;/span&gt;&lt;span style=&quot;color: #98c379&quot;&gt;&quot;招财猫&quot;&lt;/span&gt;&lt;span style=&quot;color: #abb2bf&quot;&gt;;&lt;/span&gt;&lt;/div&gt;&lt;div&gt;&lt;span style=&quot;color: rgb(198 , 120 , 221)&quot;&gt;&amp;nbsp; &amp;nbsp; public Cat() {&lt;/span&gt;&lt;/div&gt;&lt;div&gt;&lt;span style=&quot;color: rgb(198 , 120 , 221)&quot;&gt;&amp;nbsp; &amp;nbsp; }&lt;/span&gt;&lt;span style=&quot;color: #abb2bf&quot;&gt;&lt;br&gt;&lt;/span&gt;&lt;/div&gt;&lt;div&gt;&lt;span style=&quot;color: #e06c75&quot;&gt;&amp;nbsp; &amp;nbsp; &lt;/span&gt;&lt;span style=&quot;color: #c678dd&quot;&gt;public&lt;/span&gt;&lt;span style=&quot;color: #61afef&quot;&gt; &lt;/span&gt;&lt;span style=&quot;color: #c678dd&quot;&gt;void&lt;/span&gt;&lt;span style=&quot;color: #61afef&quot;&gt; &lt;/span&gt;&lt;span style=&quot;color: #61afef&quot;&gt;hi&lt;/span&gt;&lt;span style=&quot;color: #abb2bf&quot;&gt;()&lt;/span&gt;&lt;span style=&quot;color: #61afef&quot;&gt; &lt;/span&gt;&lt;span style=&quot;color: #abb2bf&quot;&gt;{&lt;/span&gt;&lt;/div&gt;&lt;div&gt;&lt;span style=&quot;color: #abb2bf&quot;&gt;&amp;nbsp; &amp;nbsp; &amp;nbsp; &amp;nbsp; &lt;/span&gt;&lt;span style=&quot;color: #e5c07b&quot;&gt;System&lt;/span&gt;&lt;span style=&quot;color: #abb2bf&quot;&gt;.&lt;/span&gt;&lt;span style=&quot;color: #e06c75&quot;&gt;out&lt;/span&gt;&lt;span style=&quot;color: #abb2bf&quot;&gt;.&lt;/span&gt;&lt;span style=&quot;color: #61afef&quot;&gt;println&lt;/span&gt;&lt;span style=&quot;color: #abb2bf&quot;&gt;(&lt;/span&gt;&lt;span style=&quot;color: #98c379&quot;&gt;&quot;hi &quot;&lt;/span&gt;&lt;span style=&quot;color: #abb2bf&quot;&gt; &lt;/span&gt;&lt;span style=&quot;color: #56b6c2&quot;&gt;+&lt;/span&gt;&lt;span style=&quot;color: #abb2bf&quot;&gt; &lt;/span&gt;&lt;span style=&quot;color: #e06c75&quot;&gt;name&lt;/span&gt;&lt;span style=&quot;color: #abb2bf&quot;&gt;);&lt;/span&gt;&lt;/div&gt;&lt;div&gt;&lt;span style=&quot;color: #abb2bf&quot;&gt;&amp;nbsp; &amp;nbsp; }&lt;/span&gt;&lt;/div&gt;&lt;div&gt;&lt;span style=&quot;color: #abb2bf&quot;&gt;}&lt;/span&gt;&lt;/div&gt;&lt;/div&gt;" style="rounded=0;whiteSpace=wrap;html=1;fontFamily=Verdana;fontSize=14;fillColor=#647687;strokeColor=#314354;align=left;verticalAlign=top;fontColor=#ffffff;" parent="1" vertex="1">
                    <mxGeometry x="-120" y="230" width="410" height="270" as="geometry"/>
                </mxCell>
                <mxCell id="5" value="" style="rounded=0;whiteSpace=wrap;html=1;fontFamily=Verdana;fontSize=14;fillColor=#647687;strokeColor=#314354;align=left;verticalAlign=top;fontColor=#ffffff;" parent="1" vertex="1">
                    <mxGeometry x="-120" y="680" width="410" height="210" as="geometry"/>
                </mxCell>
                <mxCell id="9" style="edgeStyle=none;html=1;exitX=0.5;exitY=1;exitDx=0;exitDy=0;entryX=0.5;entryY=0;entryDx=0;entryDy=0;fontFamily=Verdana;fontSize=14;fillColor=#f0a30a;strokeColor=#BD7000;strokeWidth=2;" parent="1" source="6" target="5" edge="1">
                    <mxGeometry relative="1" as="geometry"/>
                </mxCell>
                <mxCell id="6" value="Javac 编译" style="rhombus;whiteSpace=wrap;html=1;fontFamily=Verdana;fontSize=14;fillColor=#6d8764;fontColor=#ffffff;strokeColor=#3A5431;" parent="1" vertex="1">
                    <mxGeometry x="35" y="540" width="100" height="100" as="geometry"/>
                </mxCell>
                <mxCell id="11" value="&lt;b&gt;Cat.class 字节码文件&lt;/b&gt;" style="rounded=0;whiteSpace=wrap;html=1;fontFamily=Verdana;fontSize=14;fillColor=#a0522d;strokeColor=#6D1F00;align=left;verticalAlign=top;fontColor=#ffffff;" parent="1" vertex="1">
                    <mxGeometry x="-100" y="700" width="280" height="170" as="geometry"/>
                </mxCell>
                <mxCell id="12" value="private String name" style="rounded=0;whiteSpace=wrap;html=1;fontFamily=Verdana;fontSize=14;fillColor=#76608a;strokeColor=#432D57;align=left;verticalAlign=top;fontColor=#ffffff;" parent="1" vertex="1">
                    <mxGeometry x="-90" y="730" width="200" height="30" as="geometry"/>
                </mxCell>
                <mxCell id="13" value="public Cat() {}" style="rounded=0;whiteSpace=wrap;html=1;fontFamily=Verdana;fontSize=14;fillColor=#76608a;strokeColor=#432D57;align=left;verticalAlign=top;fontColor=#ffffff;" parent="1" vertex="1">
                    <mxGeometry x="-90" y="775" width="200" height="30" as="geometry"/>
                </mxCell>
                <mxCell id="14" value="public hi() {}" style="rounded=0;whiteSpace=wrap;html=1;fontFamily=Verdana;fontSize=14;fillColor=#76608a;strokeColor=#432D57;align=left;verticalAlign=top;fontColor=#ffffff;" parent="1" vertex="1">
                    <mxGeometry x="-90" y="820" width="200" height="30" as="geometry"/>
                </mxCell>
                <mxCell id="24" value="Cat cat = new Cat();" style="rounded=0;whiteSpace=wrap;html=1;fontFamily=Verdana;fontSize=14;fillColor=#76608a;strokeColor=#432D57;align=left;verticalAlign=top;fontColor=#ffffff;" parent="1" vertex="1">
                    <mxGeometry x="1000" y="250" width="200" height="30" as="geometry"/>
                </mxCell>
                <mxCell id="25" value="cat.hi();" style="rounded=0;whiteSpace=wrap;html=1;fontFamily=Verdana;fontSize=14;fillColor=#76608a;strokeColor=#432D57;align=left;verticalAlign=top;fontColor=#ffffff;" parent="1" vertex="1">
                    <mxGeometry x="1000" y="295" width="200" height="30" as="geometry"/>
                </mxCell>
                <mxCell id="29" value="&lt;div style=&quot;text-align: center&quot;&gt;&lt;span style=&quot;font-size: 19px&quot;&gt;&lt;b&gt;Class 类对象（在堆中）&lt;/b&gt;&lt;/span&gt;&lt;/div&gt;" style="rounded=0;whiteSpace=wrap;html=1;fontFamily=Verdana;fontSize=14;fillColor=#647687;strokeColor=#314354;align=left;verticalAlign=top;fontColor=#ffffff;" parent="1" vertex="1">
                    <mxGeometry x="430" y="230" width="410" height="240" as="geometry"/>
                </mxCell>
                <mxCell id="30" value="成员变量&amp;nbsp; Field[] fields" style="rounded=0;whiteSpace=wrap;html=1;fontFamily=Verdana;fontSize=14;fillColor=#76608a;strokeColor=#432D57;align=left;verticalAlign=top;fontColor=#ffffff;" parent="1" vertex="1">
                    <mxGeometry x="450" y="270" width="210" height="30" as="geometry"/>
                </mxCell>
                <mxCell id="31" value="构造器&amp;nbsp; Constructor[] cons" style="rounded=0;whiteSpace=wrap;html=1;fontFamily=Verdana;fontSize=14;fillColor=#76608a;strokeColor=#432D57;align=left;verticalAlign=top;fontColor=#ffffff;" parent="1" vertex="1">
                    <mxGeometry x="450" y="320" width="210" height="30" as="geometry"/>
                </mxCell>
                <mxCell id="32" value="成员方法&amp;nbsp; Method[] methods" style="rounded=0;whiteSpace=wrap;html=1;fontFamily=Verdana;fontSize=14;fillColor=#76608a;strokeColor=#432D57;align=left;verticalAlign=top;fontColor=#ffffff;" parent="1" vertex="1">
                    <mxGeometry x="450" y="370" width="210" height="30" as="geometry"/>
                </mxCell>
                <mxCell id="33" value="注解，泛型 ..." style="rounded=0;whiteSpace=wrap;html=1;fontFamily=Verdana;fontSize=14;fillColor=#76608a;strokeColor=#432D57;align=left;verticalAlign=top;fontColor=#ffffff;" parent="1" vertex="1">
                    <mxGeometry x="450" y="420" width="210" height="30" as="geometry"/>
                </mxCell>
                <mxCell id="34" style="edgeStyle=orthogonalEdgeStyle;html=1;fontFamily=Verdana;fontSize=24;fontColor=#FFFFFF;strokeWidth=4;entryX=0;entryY=0.5;entryDx=0;entryDy=0;startArrow=none;fillColor=#f0a30a;strokeColor=#BD7000;" parent="1" source="36" target="29" edge="1">
                    <mxGeometry relative="1" as="geometry">
                        <mxPoint x="380" y="420" as="targetPoint"/>
                    </mxGeometry>
                </mxCell>
                <mxCell id="37" value="" style="edgeStyle=orthogonalEdgeStyle;html=1;fontFamily=Verdana;fontSize=24;fontColor=#FFFFFF;strokeWidth=4;entryX=0;entryY=0.5;entryDx=0;entryDy=0;endArrow=none;fillColor=#f0a30a;strokeColor=#BD7000;" parent="1" source="5" target="36" edge="1">
                    <mxGeometry relative="1" as="geometry">
                        <mxPoint x="430" y="350" as="targetPoint"/>
                        <mxPoint x="290" y="785" as="sourcePoint"/>
                    </mxGeometry>
                </mxCell>
                <mxCell id="41" style="edgeStyle=orthogonalEdgeStyle;html=1;exitX=0;exitY=0.5;exitDx=0;exitDy=0;entryX=1;entryY=0.5;entryDx=0;entryDy=0;fontFamily=Verdana;fontSize=19;fontColor=#FFFFFF;strokeWidth=4;fillColor=#f0a30a;strokeColor=#BD7000;" parent="1" source="39" target="29" edge="1">
                    <mxGeometry relative="1" as="geometry"/>
                </mxCell>
                <mxCell id="39" value="&lt;b&gt;Cat 对象（在堆中）&lt;/b&gt;&lt;br style=&quot;font-size: 19px&quot;&gt;该对象知道他是属于哪个 Class 对象" style="rounded=0;whiteSpace=wrap;html=1;fontFamily=Verdana;fontSize=19;fillColor=#76608a;strokeColor=#432D57;align=left;verticalAlign=top;fontColor=#ffffff;spacingLeft=15;" parent="1" vertex="1">
                    <mxGeometry x="980" y="445" width="350" height="75" as="geometry"/>
                </mxCell>
                <mxCell id="40" value="得到 Class 对象后&lt;br style=&quot;font-size: 19px&quot;&gt;1. 创建对象&lt;br&gt;2. 调用对象方法&lt;br style=&quot;font-size: 19px&quot;&gt;3. 操作属性等" style="rounded=0;whiteSpace=wrap;html=1;fontFamily=Verdana;fontSize=19;fillColor=#76608a;strokeColor=#432D57;align=left;verticalAlign=top;fontColor=#ffffff;spacingLeft=15;" parent="1" vertex="1">
                    <mxGeometry x="980" y="615" width="349" height="115" as="geometry"/>
                </mxCell>
                <mxCell id="42" style="edgeStyle=orthogonalEdgeStyle;html=1;exitX=1;exitY=0.5;exitDx=0;exitDy=0;entryX=0;entryY=0.5;entryDx=0;entryDy=0;fontFamily=Verdana;fontSize=19;fontColor=#FFFFFF;strokeWidth=4;fillColor=#f0a30a;strokeColor=#BD7000;" parent="1" source="20" target="27" edge="1">
                    <mxGeometry relative="1" as="geometry"/>
                </mxCell>
                <mxCell id="56" value="生成对象" style="edgeLabel;html=1;align=center;verticalAlign=middle;resizable=0;points=[];fontSize=15;fontFamily=Verdana;fontColor=#FFFFFF;labelBackgroundColor=#FF9933;" parent="42" vertex="1" connectable="0">
                    <mxGeometry x="0.3675" y="2" relative="1" as="geometry">
                        <mxPoint y="-19" as="offset"/>
                    </mxGeometry>
                </mxCell>
                <mxCell id="58" value="&lt;font style=&quot;font-size: 15px&quot; color=&quot;#ffffff&quot;&gt;引用&lt;/font&gt;" style="edgeStyle=orthogonalEdgeStyle;html=1;entryX=0.5;entryY=1;entryDx=0;entryDy=0;strokeWidth=4;strokeColor=#FF9933;labelBackgroundColor=none;" parent="1" source="57" target="29" edge="1">
                    <mxGeometry relative="1" as="geometry">
                        <Array as="points">
                            <mxPoint x="635" y="510"/>
                            <mxPoint x="635" y="510"/>
                        </Array>
                    </mxGeometry>
                </mxCell>
                <mxCell id="57" value="&lt;span style=&quot;font-size: 19px&quot;&gt;&lt;b&gt;方法区&lt;/b&gt;&lt;br&gt;&amp;nbsp; Cat 类的字节码二进制数据/元数据&lt;br&gt;&lt;/span&gt;" style="rounded=0;whiteSpace=wrap;html=1;fontFamily=Verdana;fontSize=14;fillColor=#647687;strokeColor=#314354;align=left;verticalAlign=top;fontColor=#ffffff;" parent="1" vertex="1">
                    <mxGeometry x="475" y="555" width="370" height="70" as="geometry"/>
                </mxCell>
                <mxCell id="59" value="Class.forName()" style="rounded=0;whiteSpace=wrap;html=1;fontFamily=Verdana;fontSize=14;fillColor=#76608a;strokeColor=#432D57;align=center;verticalAlign=top;fontColor=#ffffff;" vertex="1" parent="1">
                    <mxGeometry x="-120" y="930" width="410" height="30" as="geometry"/>
                </mxCell>
                <mxCell id="60" value="类.class" style="rounded=0;whiteSpace=wrap;html=1;fontFamily=Verdana;fontSize=14;fillColor=#76608a;strokeColor=#432D57;align=center;verticalAlign=top;fontColor=#ffffff;" vertex="1" parent="1">
                    <mxGeometry x="430" y="930" width="420" height="30" as="geometry"/>
                </mxCell>
                <mxCell id="61" value="对象.getClass()" style="rounded=0;whiteSpace=wrap;html=1;fontFamily=Verdana;fontSize=14;fillColor=#76608a;strokeColor=#432D57;align=center;verticalAlign=top;fontColor=#ffffff;" vertex="1" parent="1">
                    <mxGeometry x="980" y="930" width="420" height="30" as="geometry"/>
                </mxCell>
            </root>
        </mxGraphModel>
    </diagram>
</mxfile>